<svg width="1920" height="1604" viewBox="0 0 1920 1604" fill="none" xmlns="http://www.w3.org/2000/svg">
<path d="M0 56.8288C0 56.8288 110 146.148 614.667 56.8288C1119.33 -32.4905 1276.67 238.596 1508 260.859C1739.33 283.121 1920 214.72 1920 214.72L1916.67 1579.32C1573.33 1536.94 1331.67 1248.97 859.333 1416.87C489.333 1570.85 384.667 1646.66 0 1579.32V56.8288Z" fill="#E6E6E6"/>
<path d="M0 0C0 0 251.334 214.306 738 105.504C1224.67 -3.29701 1364 205.917 1589.33 271.768C1814.67 337.619 1920 325.376 1920 325.376V1464.34C1624.42 1337.53 1396.34 1247.75 924.001 1404.06C639.792 1512.38 460.494 1575.79 0 1464.34V0Z" fill="url(#paint0_linear_158_640)"/>
<defs>
<linearGradient id="paint0_linear_158_640" x1="1110" y1="90.4324" x2="1034.88" y2="1389.08" gradientUnits="userSpaceOnUse">
<stop stop-color="#ED5C9C"/>
<stop offset="0.552083" stop-color="#5A89E1"/>
</linearGradient>
</defs>
</svg>
